<svg width="134" height="21" viewBox="0 0 134 21" fill="none" xmlns="http://www.w3.org/2000/svg">
<path d="M45 13H0M134 13L88 13M71.2535 10C71.2535 14.9706 66.4343 19 66.4343 19C66.4343 19 61.6151 14.9706 61.6151 10C61.6151 5.02944 66.4343 1 66.4343 1C66.4343 1 71.2535 5.02944 71.2535 10ZM64.8867 9.40339C68.0328 12.9939 67.2439 19.7157 67.2439 19.7157C67.2439 19.7157 61.3541 20.6161 58.208 17.0255C55.0619 13.435 55.8508 6.71322 55.8508 6.71322C55.8508 6.71322 61.7406 5.81285 64.8867 9.40339ZM69.3198 9.40339C66.1737 12.9939 66.9626 19.7157 66.9626 19.7157C66.9626 19.7157 72.8524 20.6161 75.9985 17.0255C79.1446 13.435 78.3557 6.71322 78.3557 6.71322C78.3557 6.71322 72.4659 5.81285 69.3198 9.40339Z" stroke="white"/>
</svg>
