<svg width="0" height="0" class="hidden">
	<symbol viewBox="0 0 25 25" xmlns="http://www.w3.org/2000/svg" id="instagram">
		<rect x="0.5" y="0.5" width="24" height="24" rx="3.5" stroke="currentColor"/>
		<circle cx="12.5" cy="12.5" r="5" stroke="currentColor"/>
		<circle cx="19.5" cy="5.5" r="1.5" fill="currentColor"/>
	</symbol>
	<svg viewBox="0 0 25 25" xmlns="http://www.w3.org/2000/svg" id="facebook">
		<rect x="0.5" y="0.5" width="24" height="24" rx="3.5" stroke="currentColor"/>
		<path d="M15.6309 12.2H13.6667V20H10.75V12.2H9V9.8H10.75V8.35391C10.7523 6.24922 11.6022 5 14.013 5H16V7.4H14.667C13.7282 7.4 13.6667 7.76094 13.6667 8.43359V9.8H16L15.6309 12.2Z" fill="currentColor"/>
	</svg>
	<symbol viewBox="0 0 27 27" xmlns="http://www.w3.org/2000/svg" id="viber">
		<path fill-rule="evenodd" clip-rule="evenodd" d="M11.7322 7.12214C11.6131 6.55018 11.3828 6.49535 11.1737 6.44729C11.0033 6.40663 10.8072 6.36917 10.6111 6.33171C10.4175 6.29472 10.083 6.31198 9.75349 6.5791C9.42204 6.84315 8.51536 7.46535 8.21717 9.02627C7.91947 10.5846 8.68664 12.2949 8.79149 12.5341C8.89926 12.7711 10.1561 16.4364 12.9003 18.2782C15.1824 19.8072 15.7282 19.695 16.2755 19.7455C16.8258 19.7938 18.1626 19.3105 18.5487 18.6159C18.9343 17.9239 19.0554 17.2897 19.0082 17.1427C18.9611 16.9957 18.7799 16.8799 18.515 16.6643C18.2526 16.4491 16.9536 15.4082 16.7029 15.2494C16.4541 15.0937 16.2681 15.004 16.0116 15.2824C15.7552 15.5608 15.0546 16.1682 14.8423 16.3468C14.6301 16.5254 14.4557 16.5191 14.1903 16.3061C13.9278 16.0909 13.0451 15.576 12.1284 14.2808C11.4151 13.2734 11.0225 12.1243 10.9114 11.773C10.7999 11.4243 10.9853 11.2812 11.1634 11.1502C11.3235 11.0347 11.5295 10.8359 11.7126 10.6788C11.8932 10.5212 11.9666 10.4 12.1062 10.2075C12.2434 10.0146 12.2304 9.82001 12.1882 9.64691C12.146 9.47381 11.8739 7.79854 11.7322 7.12214Z" fill="currentColor"/>
		<path d="M3.89061 21.2727L4.36495 21.4308L4.453 21.1666L4.2748 20.9527L3.89061 21.2727ZM2.38889 25.7778L1.91455 25.6197L1.63529 26.4575L2.49735 26.2659L2.38889 25.7778ZM8.03513 24.5231L8.25401 24.0736L8.09706 23.9972L7.92667 24.035L8.03513 24.5231ZM25.5 13.2778C25.5 19.9052 20.1274 25.2778 13.5 25.2778V26.2778C20.6797 26.2778 26.5 20.4575 26.5 13.2778H25.5ZM13.5 1.27783C20.1274 1.27783 25.5 6.65042 25.5 13.2778H26.5C26.5 6.09813 20.6797 0.277832 13.5 0.277832V1.27783ZM1.5 13.2778C1.5 6.65042 6.87258 1.27783 13.5 1.27783V0.277832C6.3203 0.277832 0.5 6.09813 0.5 13.2778H1.5ZM4.2748 20.9527C2.54195 18.8722 1.5 16.1973 1.5 13.2778H0.5C0.5 16.4397 1.62947 19.3391 3.50641 21.5927L4.2748 20.9527ZM2.86323 25.9359L4.36495 21.4308L3.41627 21.1146L1.91455 25.6197L2.86323 25.9359ZM7.92667 24.035L2.28042 25.2897L2.49735 26.2659L8.1436 25.0112L7.92667 24.035ZM13.5 25.2778C11.6178 25.2778 9.8382 24.8449 8.25401 24.0736L7.81626 24.9727C9.53385 25.8089 11.4629 26.2778 13.5 26.2778V25.2778Z" fill="currentColor"/>
	</symbol>
	<symbol viewBox="0 0 25 26" xmlns="http://www.w3.org/2000/svg" id="vkontakte">
		<rect x="0.5" y="1.1665" width="24" height="24" rx="3.5" stroke="currentColor"/>
		<path d="M18.3482 15.2148C19.5548 16.3842 19.8061 16.956 19.8468 17.0263C20.3449 17.8934 19.2945 17.9614 19.2945 17.9614L17.2819 17.9918C17.2819 17.9918 16.8472 18.0809 16.279 17.6708C15.5252 17.1318 14.4951 15.7257 13.9427 15.9085C13.3813 16.0936 13.5602 17.5677 13.5602 17.5677C13.5602 17.5677 13.5647 17.7481 13.4379 17.8934C13.2975 18.0457 13.0259 17.9871 13.0259 17.9871H12.4463C12.4463 17.9871 10.298 17.9965 8.54574 16.089C6.63733 14.0103 5.04132 10.1225 5.04132 10.1225C5.04132 10.1225 4.94398 9.87645 5.04811 9.74522C5.1681 9.59758 5.49182 9.59992 5.49182 9.59992H7.64474C7.64474 9.59992 7.84622 9.62805 7.9911 9.74053C8.11335 9.83193 8.179 10.0053 8.179 10.0053C8.179 10.0053 8.43934 10.7295 8.90117 11.5637C9.79991 13.1901 10.2187 13.5463 10.5243 13.3705C10.9681 13.1151 10.8345 11.0716 10.8345 11.0716C10.8345 11.0716 10.8435 10.3287 10.6104 9.99831C10.4293 9.74053 10.0919 9.66554 9.94253 9.64445C9.82029 9.63039 10.0195 9.33511 10.2776 9.20388C10.6647 9.00703 11.3506 8.99297 12.1588 9.00234C12.7882 9.00937 13.0259 9 13.0259 9C13.7684 9.18748 13.5171 9.91395 13.5171 11.6481C13.5171 12.2058 13.4198 12.9886 13.8046 13.2463C13.9699 13.3612 14.563 13.3776 15.5704 11.5848C16.0504 10.7342 16.4284 9.93504 16.4284 9.93504C16.4284 9.93504 16.5099 9.75459 16.6299 9.6796C16.7567 9.59992 16.9242 9.59992 16.9242 9.59992L19.1903 9.61164C19.1903 9.61164 19.8717 9.52259 19.9804 9.84599C20.0959 10.1834 19.702 10.774 18.7783 12.0652C17.257 14.1861 17.0872 13.9892 18.3482 15.2148Z" fill="currentColor"/>
	</symbol>
</svg>
